<svg xmlns="http://www.w3.org/2000/svg" version="1.1" xmlns:xlink="http://www.w3.org/1999/xlink" xmlns:svgjs="http://svgjs.dev/svgjs" width="100%" height="100%" viewBox="0 0 1000 600"><rect width="1000" height="600" x="0" y="0" fill="#191919"/><g><circle r="166.66666666666666" cx="406.2896830240885" cy="428.5118166595637" fill="#b88746" transform="matrix(0.5216529833220487,0,0,0.5216529833220487,0,76.46555301610545)"/><path d="M342.89565467439326 353.5117552864867L342.89565467439326 353.5117552864867Q356.34158744343364 353.5117552864867 365.0035988693839 357.4747670499933Q373.66561029533403 361.43777881349996 380.4027302932953 366.75953746735166L380.4027302932953 366.75953746735166Q384.4789709643307 369.81671797062825 386.63032020737717 367.46721813940644Q388.75336222354144 365.11771830818464 389.574271803125 356.3424779747057L389.574271803125 356.3424779747057L394.27327146556854 356.3424779747057Q393.8486630623357 363.9005075522505 393.65051247416034 374.68556099436495Q393.452361885985 385.4989216633616 393.452361885985 403.2192456916127L393.452361885985 403.2192456916127L388.75336222354144 403.2192456916127Q387.33800087943195 394.4723125850159 386.1207901234977 389.2637828386929Q384.8752721406814 384.0835603192521 383.1485313008678 380.4036208245674Q381.4217904610542 376.72368132988265 378.562760545953 373.0720490620801L378.562760545953 373.0720490620801Q372.25024895122453 364.721417131834 362.6824062650442 360.9282487296205Q353.0862563519818 357.1633875542892 342.49935349804264 357.1633875542892L342.49935349804264 357.1633875542892Q332.50690240862946 357.1633875542892 324.46764997408746 362.1737667124369Q316.4000903126633 367.15583864370234 310.5971088018143 376.5255307417073Q304.79412729096526 385.8952228397123 301.62371788016 399.1430050205773Q298.4816156962368 412.3907872014423 298.4816156962368 428.9222077006414L298.4816156962368 428.9222077006414Q298.4816156962368 446.0197727374843 301.935097375864 459.18263323770276Q305.3885790554912 472.317186511039 311.6161689695731 481.2905774326933Q317.84375888365497 490.2639683543476 326.27931249454764 494.84973910926243Q334.7431733323225 499.4355098641773 344.53747383356034 499.4355098641773L344.53747383356034 499.4355098641773Q353.7090153433899 499.4355098641773 363.7014664328031 495.75557036949255Q373.66561029533403 492.10393810168995 379.38367012553647 483.9514567596192L379.38367012553647 483.9514567596192Q383.8562119729225 478.0352463412414 385.61126003961834 471.0999757551048Q387.33800087943195 464.1647051689682 388.75336222354144 451.7378325676867L388.75336222354144 451.7378325676867L393.452361885985 451.7378325676867Q393.452361885985 470.2790661755213 393.65051247416034 481.6019569283974Q393.8486630623357 492.8965404543913 394.27327146556854 500.65272062011144L394.27327146556854 500.65272062011144L389.574271803125 500.65272062011144Q388.75336222354144 491.8774802866324 386.8284707955525 489.64120936293943Q384.8752721406814 487.4049384392464 380.4027302932953 490.2639683543476L380.4027302932953 490.2639683543476Q372.87300794263274 495.55741978131715 364.4091471048578 499.5204315448238Q355.94528626708296 503.5117505352126 342.697504086218 503.5117505352126L342.697504086218 503.5117505352126Q323.3353608987998 503.5117505352126 308.7571390544719 494.73651020173367Q294.17891721014394 485.9895770951369 286.1396647756019 469.4581565959378Q278.1004123410599 452.9550433236209 278.1004123410599 429.7148100533427L278.1004123410599 429.7148100533427Q278.1004123410599 406.8991851862974 286.451044271306 389.77331292257236Q294.8016762015521 372.64744065884724 309.37989804588005 363.07959797266693Q323.958119890208 353.5117552864867 342.89565467439326 353.5117552864867ZM483.1296566487636 353.5117552864867L483.1296566487636 353.5117552864867Q496.575589417804 353.5117552864867 505.23760084375414 357.4747670499933Q513.8996122697044 361.43777881349996 520.6367322676656 366.75953746735166L520.6367322676656 366.75953746735166Q524.7129729387011 369.81671797062825 526.8360149548653 367.46721813940644Q528.9873641979118 365.11771830818464 529.8082737774953 356.3424779747057L529.8082737774953 356.3424779747057L534.4789662130568 356.3424779747057Q534.082665036706 363.9005075522505 533.8845144485306 374.68556099436495Q533.658056633473 385.4989216633616 533.658056633473 403.2192456916127L533.658056633473 403.2192456916127L528.9873641979118 403.2192456916127Q527.54369562692 394.4723125850159 526.326484870986 389.2637828386929Q525.1092741150517 384.0835603192521 523.3825332752381 380.4036208245674Q521.6557924354245 376.72368132988265 518.7967625203232 373.0720490620801L518.7967625203232 373.0720490620801Q512.484250925595 364.721417131834 502.88810101253245 360.9282487296205Q493.3202583263521 357.1633875542892 482.7050482455308 357.1633875542892L482.7050482455308 357.1633875542892Q472.74090438299976 357.1633875542892 464.6733447215756 362.1737667124369Q456.6340922870336 367.15583864370234 450.83111077618463 376.5255307417073Q444.9998220384534 385.8952228397123 441.85771985453033 399.1430050205773Q438.6873104437249 412.3907872014423 438.6873104437249 428.9222077006414L438.6873104437249 428.9222077006414Q438.6873104437249 446.0197727374843 442.1690993502344 459.18263323770276Q445.6225810298616 472.317186511039 451.85017094394345 481.2905774326933Q458.0494536311431 490.2639683543476 466.51331446891794 494.84973910926243Q474.9771753066928 499.4355098641773 484.74316858104845 499.4355098641773L484.74316858104845 499.4355098641773Q493.9147100908781 499.4355098641773 503.90716118029127 495.75557036949255Q513.8996122697044 492.10393810168995 519.6176720999069 483.9514567596192L519.6176720999069 483.9514567596192Q524.0902139472928 478.0352463412414 525.8169547871064 471.0999757551048Q527.54369562692 464.1647051689682 528.9873641979118 451.7378325676867L528.9873641979118 451.7378325676867L533.658056633473 451.7378325676867Q533.658056633473 470.2790661755213 533.8845144485306 481.6019569283974Q534.082665036706 492.8965404543913 534.4789662130568 500.65272062011144L534.4789662130568 500.65272062011144L529.8082737774953 500.65272062011144Q528.9873641979118 491.8774802866324 527.0341655430407 489.64120936293943Q525.1092741150517 487.4049384392464 520.6367322676656 490.2639683543476L520.6367322676656 490.2639683543476Q513.078702690121 495.55741978131715 504.614841852346 499.5204315448238Q496.1792882414533 503.5117505352126 482.93150606058833 503.5117505352126L482.93150606058833 503.5117505352126Q463.5693628731702 503.5117505352126 448.99114102884226 494.73651020173367Q434.41291918451424 485.9895770951369 426.37366674997224 469.4581565959378Q418.306107088548 452.9550433236209 418.306107088548 429.7148100533427L418.306107088548 429.7148100533427Q418.306107088548 406.8991851862974 426.6567390187941 389.77331292257236Q435.03567817592244 372.64744065884724 449.5855927933682 363.07959797266693Q464.16381463769613 353.5117552864867 483.1296566487636 353.5117552864867Z " fill="#191919" transform="matrix(0.5216529833220487,0,0,0.5216529833220487,0,76.46555301610545)"/><path d="M705.7067729474 363.16202340022676L705.7067729474 363.16202340022676Q715.9615208941182 363.16202340022676 722.5677374661092 366.1844754266279Q729.1739540381003 369.206927453029 734.3121224829822 373.2656487456248L734.3121224829822 373.2656487456248Q737.4209302815663 375.5972545945628 739.0616899530411 373.80537232176783Q740.6808606814702 372.01349004897287 741.3069400297962 365.320917704799L741.3069400297962 365.320917704799L744.8907045753862 365.320917704799Q744.5668704297003 371.0851654980068 744.4157478283802 379.31055279842707Q744.2646252270602 387.55752904189296 744.2646252270602 401.07220738851515L744.2646252270602 401.07220738851515L740.6808606814702 401.07220738851515Q739.6014135291841 394.40122398738697 738.6730889782181 390.4288584669741Q737.7231754842063 386.47808188960687 736.4062499584172 383.6715192936629Q735.0893244326281 380.86495669771904 732.9088411850103 378.07998304482084L732.9088411850103 378.07998304482084Q728.0945068858141 371.71124484633276 720.79744413636 368.81832647820596Q713.4787924438601 365.9469970531249 705.40452774476 365.9469970531249L705.40452774476 365.9469970531249Q697.78363084962 365.9469970531249 691.6523710246348 369.76823997221777Q685.499522256604 373.5678939482649 681.073788932231 380.713834096399Q676.6480556078578 387.85977424453307 674.230093986737 397.96339958993116Q671.8337213086617 408.0670249353292 671.8337213086617 420.67496767403105L671.8337213086617 420.67496767403105Q671.8337213086617 433.7146892736473 674.4675723602398 443.7535477899082Q677.101423411818 453.7708173631234 681.8509908818769 460.61451230861735Q686.6005583519358 467.45820725411136 693.0340633795611 470.9556160275184Q699.4891573502321 474.4530248009254 706.958931644052 474.4530248009254L706.958931644052 474.4530248009254Q713.953749190866 474.4530248009254 721.574646086006 471.64646220498145Q729.1739540381003 468.86148855208324 733.5349205333362 462.64387295491525L733.5349205333362 462.64387295491525Q736.9459735345603 458.13178385835926 738.284488003395 452.84249281215733Q739.6014135291841 447.55320176595535 740.6808606814702 438.0756557688832L740.6808606814702 438.0756557688832L744.2646252270602 438.0756557688832Q744.2646252270602 452.2164134638314 744.4157478283802 460.8519906821203Q744.5668704297003 469.4659789573635 744.8907045753862 475.3813493518914L744.8907045753862 475.3813493518914L741.3069400297962 475.3813493518914Q740.6808606814702 468.68877700771753 739.2128125543611 466.9832505071054Q737.7231754842063 465.2777240064934 734.3121224829822 467.45820725411136L734.3121224829822 467.45820725411136Q728.56946363282 471.4953396036614 722.114369662149 474.51779163006256Q715.659275691478 477.5618325995094 705.55565034608 477.5618325995094L705.55565034608 477.5618325995094Q690.7888133028059 477.5618325995094 679.670507634259 470.86926025533546Q668.552201965712 464.1982768542073 662.4209421407269 451.5903341155054Q656.2896823157417 439.0039803198493 656.2896823157417 421.27945807931127L656.2896823157417 421.27945807931127Q656.2896823157417 403.8787699844591 662.6584205142298 390.81745944179704Q669.0271587127178 377.75614889913504 680.1454643812648 370.4590861496809Q691.2637700498118 363.16202340022676 705.7067729474 363.16202340022676ZM797.5677256069486 393.14906529073505L797.5677256069486 393.14906529073505Q807.5202283510266 393.14906529073505 815.4433704488067 397.51003178597097Q823.3881014896325 401.84940933816114 828.1160800166457 411.17583273391324Q832.8656474867047 420.5022561296652 832.8656474867047 435.4418047173051L832.8656474867047 435.4418047173051Q832.8656474867047 450.35976436189924 828.1160800166457 459.5998319854684Q823.3881014896325 468.86148855208324 815.4433704488067 473.2008661042735Q807.5202283510266 477.5618325995094 797.5677256069486 477.5618325995094L797.5677256069486 477.5618325995094Q787.7879344072364 477.5618325995094 779.7784365372735 473.2008661042735Q771.7689386673104 468.86148855208324 767.0409601402972 459.5998319854684Q762.2913926702383 450.35976436189924 762.2913926702383 435.4418047173051L762.2913926702383 435.4418047173051Q762.2913926702383 420.5022561296652 767.0409601402972 411.17583273391324Q771.7689386673104 401.84940933816114 779.7784365372735 397.51003178597097Q787.7879344072364 393.14906529073505 797.5677256069486 393.14906529073505ZM797.5677256069486 396.25787308931905L797.5677256069486 396.25787308931905Q788.7162589582025 396.25787308931905 783.0383669371774 405.43317388375107Q777.3604749161525 414.6084746781831 777.3604749161525 435.4418047173051L777.3604749161525 435.4418047173051Q777.3604749161525 456.25354581338144 783.0383669371774 465.3640797786763Q788.7162589582025 474.4530248009254 797.5677256069486 474.4530248009254L797.5677256069486 474.4530248009254Q806.4407811987405 474.4530248009254 812.1186732197655 465.3640797786763Q817.7749762977447 456.25354581338144 817.7749762977447 435.4418047173051L817.7749762977447 435.4418047173051Q817.7749762977447 414.6084746781831 812.1186732197655 405.43317388375107Q806.4407811987405 396.25787308931905 797.5677256069486 396.25787308931905ZM915.4001767505011 353.51176585878886L915.4001767505011 353.51176585878886L915.4001767505011 458.4340290609994Q915.4001767505011 465.42884660781345 917.9692609729422 468.7751327799004Q920.5383451953829 472.1214189519874 927.2093285965112 472.1214189519874L927.2093285965112 472.1214189519874L927.2093285965112 475.3813493518914Q922.3949942973151 474.9063926048855 917.5806599981191 474.9063926048855L917.5806599981191 474.9063926048855Q913.0685709015631 474.9063926048855 908.9450827798302 475.3813493518914Q904.8215946580972 475.85630609889733 901.4105416568731 477.0868758525035L901.4105416568731 477.0868758525035L901.4105416568731 372.16461265029295Q901.4105416568731 365.1697951034789 898.9278132066149 361.8235089313919Q896.4450847563569 358.4988117023507 889.6013898108629 358.4988117023507L889.6013898108629 358.4988117023507L889.6013898108629 355.2172923594009Q894.5668467113791 355.6922491064068 899.2300584092551 355.6922491064068L899.2300584092551 355.6922491064068Q903.742147505811 355.6922491064068 907.865635627544 355.15252553026374Q911.9891237492769 354.6128019541207 915.4001767505011 353.51176585878886ZM882.757694865369 393.14906529073505L882.757694865369 393.14906529073505Q889.6013898108629 393.14906529073505 895.581527034528 396.40899569063913Q901.5616642581931 399.69051503358895 903.5910249044911 407.61365713136905L903.5910249044911 407.61365713136905L901.5616642581931 409.168061030661Q899.3811810105751 402.6266112878072 894.804325084882 399.69051503358895Q890.2274691591889 396.732829836325 884.0098535620208 396.732829836325L884.0098535620208 396.732829836325Q874.8345527675889 396.732829836325 868.681703999558 406.21037583339705Q862.5504441745728 415.6879218304692 862.701566775893 435.4418047173051L862.701566775893 435.4418047173051Q862.701566775893 448.0281585129612 865.1195283970138 456.33990158556435Q867.5159010750889 464.6516446581674 872.2654685451479 468.7751327799004Q877.0150360152069 472.89862090163336 883.8371420176551 472.89862090163336L883.8371420176551 472.89862090163336Q890.3785917605089 472.89862090163336 895.6678828067108 467.3070846527913Q900.9355849098671 461.69395946090344 902.036621005199 450.81313216585943L902.036621005199 450.81313216585943L903.8932701071311 452.99361541347736Q902.6627003535249 464.8027672594875 896.358728984174 471.1930944010213Q890.0547576148231 477.5618325995094 879.3466418641448 477.5618325995094L879.3466418641448 477.5618325995094Q869.6963843227069 477.5618325995094 862.46408840239 472.89862090163336Q855.2533814251187 468.23540920375734 851.4321385060258 458.9089858080053Q847.6324845299787 449.58256241225325 847.6324845299787 435.4418047173051L847.6324845299787 435.4418047173051Q847.6324845299787 421.27945807931127 852.5331746013577 411.88826785442205Q857.4122757296909 402.4754886864871 865.4217735996539 397.8122769886111Q873.431271469617 393.14906529073505 882.757694865369 393.14906529073505ZM972.7619984229854 393.14906529073505L972.7619984229854 393.14906529073505Q986.4277993709276 393.14906529073505 994.1350520382504 401.4608083633382Q1001.8207157625276 409.794140378987 1001.8207157625276 427.34595107515923L1001.8207157625276 427.34595107515923L946.9632114833472 427.34595107515923L946.7904999389814 424.38826587789526L986.9027561179334 424.38826587789526Q987.2050013205736 416.788957925801 985.6505974212815 410.33386395513Q984.0961935219896 403.8787699844591 980.7714962929484 399.992760236229Q977.4252101208614 396.106750487999 972.1359190746595 396.106750487999L972.1359190746595 396.106750487999Q964.9899789265253 396.106750487999 959.4632095068204 403.25269063613314Q953.9580290301611 410.3986307842672 952.8569929348293 425.9426697771873L952.8569929348293 425.9426697771873L953.3319496818352 426.56874912551325Q953.0081155361494 428.90035497445126 952.8569929348293 431.70691757039515Q952.7058703335093 434.49189122329335 952.7058703335093 437.29845381923724L952.7058703335093 437.29845381923724Q952.7058703335093 447.8770359116412 956.1169233347333 455.47634386373545Q959.5495652790032 463.09724075887544 965.0547457556626 467.06960627928834Q970.5815151753674 471.02038285665554 976.4968855698953 471.02038285665554L976.4968855698953 471.02038285665554Q981.1600972677714 471.02038285665554 985.3483522186415 469.55233472954643Q989.5366071695115 468.0842866024373 993.1203717151014 464.6516446581674Q996.7041362606914 461.2405916569433 999.3379873122695 455.47634386373545L999.3379873122695 455.47634386373545L1002.4467951108535 456.7285025603873Q1000.7412686102415 461.86667100526927 996.8552588620115 466.6810053044653Q992.9692491137814 471.4953396036614 987.0538787192535 474.51779163006256Q981.1600972677714 477.5618325995094 973.3880777713113 477.5618325995094L973.3880777713113 477.5618325995094Q962.1834163305813 477.5618325995094 954.1739184606184 472.4236641546275Q946.1860095337012 467.3070846527913 941.9113988106482 458.1965506874964Q937.6367880875952 449.1076056652474 937.6367880875952 437.29845381923724L937.6367880875952 437.29845381923724Q937.6367880875952 423.6110639282493 941.9761656397853 413.7449169563542Q946.3371321350212 403.8787699844591 954.2602742328013 398.52471210911995Q962.1834163305813 393.14906529073505 972.7619984229854 393.14906529073505ZM1105.5124092111319 363.16202340022676L1105.5124092111319 363.16202340022676Q1115.7671571578503 363.16202340022676 1122.3733737298412 366.1844754266279Q1128.979590301832 369.206927453029 1134.096169803668 373.2656487456248L1134.096169803668 373.2656487456248Q1137.2049776022523 375.5972545945628 1138.845737273727 373.80537232176783Q1140.4864969452024 372.01349004897287 1141.0909873504825 365.320917704799L1141.0909873504825 365.320917704799L1144.6747518960724 365.320917704799Q1144.3725066934321 371.0851654980068 1144.1997951490666 379.31055279842707Q1144.0486725477463 387.55752904189296 1144.0486725477463 401.07220738851515L1144.0486725477463 401.07220738851515L1140.4864969452024 401.07220738851515Q1139.3854608498705 394.40122398738697 1138.457136298904 390.4288584669741Q1137.528811747938 386.47808188960687 1136.2118862221491 383.6715192936629Q1134.8733717533141 380.86495669771904 1132.714477448742 378.07998304482084L1132.714477448742 378.07998304482084Q1127.8785542065002 371.71124484633276 1120.581491457046 368.81832647820596Q1113.2844287075918 365.9469970531249 1105.188575065446 365.9469970531249L1105.188575065446 365.9469970531249Q1097.567678170306 365.9469970531249 1091.4364183453213 369.76823997221777Q1085.3051585203357 373.5678939482649 1080.857836252917 380.713834096399Q1076.4321029285438 387.85977424453307 1074.035730250469 397.96339958993116Q1071.6177686293481 408.0670249353292 1071.6177686293481 420.67496767403105L1071.6177686293481 420.67496767403105Q1071.6177686293481 433.7146892736473 1074.251619680926 443.7535477899082Q1076.90705967555 453.7708173631234 1081.635038202563 460.61451230861735Q1086.384605672622 467.45820725411136 1092.839699643293 470.9556160275184Q1099.294793613964 474.4530248009254 1106.742978964738 474.4530248009254L1106.742978964738 474.4530248009254Q1113.737796511552 474.4530248009254 1121.358693406692 471.64646220498145Q1128.979590301832 468.86148855208324 1133.3189678540225 462.64387295491525L1133.3189678540225 462.64387295491525Q1136.751609798292 458.13178385835926 1138.068535324081 452.84249281215733Q1139.3854608498705 447.55320176595535 1140.4864969452024 438.0756557688832L1140.4864969452024 438.0756557688832L1144.0486725477463 438.0756557688832Q1144.0486725477463 452.2164134638314 1144.1997951490666 460.8519906821203Q1144.3725066934321 469.4659789573635 1144.6747518960724 475.3813493518914L1144.6747518960724 475.3813493518914L1141.0909873504825 475.3813493518914Q1140.4864969452024 468.68877700771753 1138.9968598750474 466.9832505071054Q1137.528811747938 465.2777240064934 1134.096169803668 467.45820725411136L1134.096169803668 467.45820725411136Q1128.353510953506 471.4953396036614 1121.8984169828354 474.51779163006256Q1115.4433230121645 477.5618325995094 1105.3396976667664 477.5618325995094L1105.3396976667664 477.5618325995094Q1090.572860623492 477.5618325995094 1079.4761438979908 470.86926025533546Q1068.357838229444 464.1982768542073 1062.2049894614129 451.5903341155054Q1056.0737296364277 439.0039803198493 1056.0737296364277 421.27945807931127L1056.0737296364277 421.27945807931127Q1056.0737296364277 403.8787699844591 1062.442467834916 390.81745944179704Q1068.8112060334042 377.75614889913504 1079.929511701951 370.4590861496809Q1091.0478173704983 363.16202340022676 1105.5124092111319 363.16202340022676ZM1197.3733618706806 393.14906529073505L1197.3733618706806 393.14906529073505Q1207.3258646147583 393.14906529073505 1215.2490067125386 397.51003178597097Q1223.172148810319 401.84940933816114 1227.9217162803775 411.17583273391324Q1232.649694807391 420.5022561296652 1232.649694807391 435.4418047173051L1232.649694807391 435.4418047173051Q1232.649694807391 450.35976436189924 1227.9217162803775 459.5998319854684Q1223.172148810319 468.86148855208324 1215.2490067125386 473.2008661042735Q1207.3258646147583 477.5618325995094 1197.3733618706806 477.5618325995094L1197.3733618706806 477.5618325995094Q1187.5719817279228 477.5618325995094 1179.5624838579597 473.2008661042735Q1171.5745749310422 468.86148855208324 1166.8250074609837 459.5998319854684Q1162.0754399909247 450.35976436189924 1162.0754399909247 435.4418047173051L1162.0754399909247 435.4418047173051Q1162.0754399909247 420.5022561296652 1166.8250074609837 411.17583273391324Q1171.5745749310422 401.84940933816114 1179.5624838579597 397.51003178597097Q1187.5719817279228 393.14906529073505 1197.3733618706806 393.14906529073505ZM1197.3733618706806 396.25787308931905L1197.3733618706806 396.25787308931905Q1188.5003062788887 396.25787308931905 1182.8440032009094 405.43317388375107Q1177.1661111798844 414.6084746781831 1177.1661111798844 435.4418047173051L1177.1661111798844 435.4418047173051Q1177.1661111798844 456.25354581338144 1182.8440032009094 465.3640797786763Q1188.5003062788887 474.4530248009254 1197.3733618706806 474.4530248009254L1197.3733618706806 474.4530248009254Q1206.2248285194269 474.4530248009254 1211.9027205404518 465.3640797786763Q1217.5806125614768 456.25354581338144 1217.5806125614768 435.4418047173051L1217.5806125614768 435.4418047173051Q1217.5806125614768 414.6084746781831 1211.9027205404518 405.43317388375107Q1206.2248285194269 396.25787308931905 1197.3733618706806 396.25787308931905ZM1295.754175330037 393.14906529073505L1295.754175330037 393.14906529073505Q1301.1945889775593 393.14906529073505 1305.253310270155 394.7034691900271Q1309.2904426197051 396.25787308931905 1311.924293671283 399.064435685263L1311.924293671283 399.064435685263Q1314.8819788685473 402.173243483847 1315.9614260208332 407.1387003843631Q1317.062462116165 412.125746227925 1317.062462116165 419.42280897737913L1317.062462116165 419.42280897737913L1317.062462116165 460.91675751125746Q1317.062462116165 467.45820725411136 1319.7826689399262 469.7898131030493Q1322.5028757636874 472.1214189519874 1328.8716139621752 472.1214189519874L1328.8716139621752 472.1214189519874L1328.8716139621752 475.3813493518914Q1326.2377629105972 475.2302267505714 1320.797349263075 474.99274837706844Q1315.356935615553 474.7552700035655 1310.218767170671 474.7552700035655L1310.218767170671 474.7552700035655Q1305.080598725789 474.7552700035655 1300.2014975974557 474.99274837706844Q1295.3008075260768 475.2302267505714 1292.8180790758192 475.3813493518914L1292.8180790758192 475.3813493518914L1292.8180790758192 472.1214189519874Q1298.409615324661 472.1214189519874 1300.7412211735991 469.7898131030493Q1303.0728270225372 467.45820725411136 1303.0728270225372 460.91675751125746L1303.0728270225372 460.91675751125746L1303.0728270225372 416.01175597615503Q1303.0728270225372 411.17583273391324 1302.446747674211 407.1387003843631Q1301.820668325885 403.10156803481306 1299.3379398756274 400.61883958455496Q1296.855211425369 398.1361111342969 1291.2636751765272 398.1361111342969L1291.2636751765272 398.1361111342969Q1285.1971821806792 398.1361111342969 1280.4476147106202 401.84940933816114Q1275.7196361836068 405.58429648507115 1272.999429359846 412.0393904557421Q1270.279222536085 418.49448442641307 1270.279222536085 426.41762652419317L1270.279222536085 426.41762652419317L1270.279222536085 460.91675751125746Q1270.279222536085 467.45820725411136 1272.610828385023 469.7898131030493Q1274.9424342339607 472.1214189519874 1280.533970482803 472.1214189519874L1280.533970482803 472.1214189519874L1280.533970482803 475.3813493518914Q1278.051242032545 475.2302267505714 1273.150551961166 474.99274837706844Q1268.249861889787 474.7552700035655 1263.111693444905 474.7552700035655L1263.111693444905 474.7552700035655Q1257.9951139430686 474.7552700035655 1252.5547002955468 474.99274837706844Q1247.114286648025 475.2302267505714 1244.458846653401 475.3813493518914L1244.458846653401 475.3813493518914L1244.458846653401 472.1214189519874Q1250.8491737949348 472.1214189519874 1253.569380618696 469.7898131030493Q1256.2895874424567 467.45820725411136 1256.2895874424567 460.91675751125746L1256.2895874424567 460.91675751125746L1256.2895874424567 412.2768688292451Q1256.2895874424567 405.28205128243104 1253.785270049153 401.93576511034405Q1251.302541598895 398.58947893825706 1244.458846653401 398.58947893825706L1244.458846653401 398.58947893825706L1244.458846653401 395.32954853835304Q1249.4458924969626 395.8045052853589 1254.109104194839 395.8045052853589L1254.109104194839 395.8045052853589Q1258.6211932913948 395.8045052853589 1262.723092470082 395.2431927661701Q1266.846580591815 394.7034691900271 1270.279222536085 393.624022037741L1270.279222536085 393.624022037741L1270.279222536085 411.9530346835592Q1274.316354885635 401.84940933816114 1281.311172432449 397.51003178597097Q1288.305989979263 393.14906529073505 1295.754175330037 393.14906529073505ZM1342.5590038531632 393.14906529073505L1342.5590038531632 393.14906529073505Q1347.9994175006855 393.14906529073505 1352.0365498502351 394.7034691900271Q1356.0736821997853 396.25787308931905 1358.7075332513637 399.064435685263L1358.7075332513637 399.064435685263Q1361.6652184486275 402.173243483847 1362.7662545439593 407.1387003843631Q1363.8457016962457 412.125746227925 1363.8457016962457 419.42280897737913L1363.8457016962457 419.42280897737913L1363.8457016962457 460.91675751125746Q1363.8457016962457 467.45820725411136 1366.5659085200064 469.7898131030493Q1369.2861153437675 472.1214189519874 1375.6548535422558 472.1214189519874L1375.6548535422558 472.1214189519874L1375.6548535422558 475.3813493518914Q1373.0210024906773 475.2302267505714 1367.5805888431555 474.99274837706844Q1362.1401751956332 474.7552700035655 1357.0020067507512 474.7552700035655L1357.0020067507512 474.7552700035655Q1351.8854272489152 474.7552700035655 1346.9847371775363 474.99274837706844Q1342.0840471061574 475.2302267505714 1339.6013186558994 475.3813493518914L1339.6013186558994 475.3813493518914L1339.6013186558994 472.1214189519874Q1345.1928549047416 472.1214189519874 1347.5244607536793 469.7898131030493Q1349.8560666026174 467.45820725411136 1349.8560666026174 460.91675751125746L1349.8560666026174 460.91675751125746L1349.8560666026174 416.01175597615503Q1349.8560666026174 411.17583273391324 1349.2299872542912 407.1387003843631Q1348.6039079059656 403.10156803481306 1346.1211794557075 400.61883958455496Q1343.6384510054495 398.1361111342969 1338.0469147566073 398.1361111342969L1338.0469147566073 398.1361111342969Q1331.9804217607593 398.1361111342969 1327.2308542907003 401.84940933816114Q1322.5028757636874 405.58429648507115 1319.7826689399262 411.9530346835592Q1317.062462116165 418.34336182509304 1317.062462116165 426.26650392287314L1317.062462116165 426.26650392287314L1316.5875053691593 411.80191208223914Q1320.797349263075 401.07220738851515 1327.9432894112092 397.12143081114795Q1335.0892295593435 393.14906529073505 1342.5590038531632 393.14906529073505ZM1407.2178882751014 393.624022037741L1407.2178882751014 393.624022037741L1407.2178882751014 489.0687392428794Q1407.2178882751014 495.7397226440076 1411.1686648524687 498.00656166380844Q1415.1410303728817 500.2518117405636 1422.1358479196956 500.2518117405636L1422.1358479196956 500.2518117405636L1422.1358479196956 503.5117421404677Q1418.7247949184716 503.36061953914765 1412.6583019226237 503.12314116564465Q1406.5918089267757 502.88566279214166 1399.7481139812817 502.88566279214166L1399.7481139812817 502.88566279214166Q1394.9337796820855 502.88566279214166 1390.1842122120265 503.12314116564465Q1385.4562336850136 503.36061953914765 1382.9735052347555 503.5117421404677L1382.9735052347555 503.5117421404677L1382.9735052347555 500.2518117405636Q1388.5650414835977 500.2518117405636 1390.8966473325354 498.22245109426564Q1393.2282531814735 496.2146793910135 1393.2282531814735 490.6231431421714L1393.2282531814735 490.6231431421714L1393.2282531814735 412.2768688292451Q1393.2282531814735 405.28205128243104 1390.7455247312155 401.93576511034405Q1388.2412073379119 398.58947893825706 1381.4191013354634 398.58947893825706L1381.4191013354634 398.58947893825706L1381.4191013354634 395.32954853835304Q1386.3845582359795 395.8045052853589 1391.0477699338558 395.8045052853589L1391.0477699338558 395.8045052853589Q1395.5598590304116 395.8045052853589 1399.6833471521445 395.2431927661701Q1403.7852463308318 394.7034691900271 1407.2178882751014 393.624022037741ZM1432.0883506637738 393.14906529073505L1432.0883506637738 393.14906529073505Q1440.313737964194 393.14906529073505 1446.8551877070477 397.57479861510814Q1453.3750485068558 402.02212088252696 1457.1962914259489 410.57134232863297Q1460.9959454019959 419.120563774739 1460.9959454019959 431.70691757039515L1460.9959454019959 431.70691757039515Q1460.9959454019959 440.1050164151811 1458.966584755698 448.26563688646416Q1456.9588130524457 456.4262573577472 1452.684202329393 463.0324739297383Q1448.4095916063397 469.6386905017293 1441.652252433029 473.5894670790965Q1434.8733243166716 477.5618325995094 1425.3957783195997 477.5618325995094L1425.3957783195997 477.5618325995094Q1418.0987155701455 477.5618325995094 1412.7230687517608 474.12919065523954Q1407.3690108764217 470.71813765401544 1405.5123617744898 465.90380335481933L1405.5123617744898 465.90380335481933L1407.0667656737814 463.72332010720135Q1409.2256599783536 468.0842866024373 1413.349148100087 471.02038285665554Q1417.4726362218198 473.97806805391946 1423.6902518189877 473.97806805391946L1423.6902518189877 473.97806805391946Q1432.390595866414 473.97806805391946 1437.2049301656098 468.53765440639745Q1442.0408534078515 463.09724075887544 1443.9838582819666 454.00829573662634Q1445.9268631560817 444.91935071437723 1445.9268631560817 433.8874008180131L1445.9268631560817 433.8874008180131Q1445.9268631560817 421.45216962367704 1443.8975025097839 413.5074385828512Q1441.868141863486 405.58429648507115 1437.831009513936 401.6982867368411Q1433.7938771643858 397.8122769886111 1427.8785067698582 397.8122769886111L1427.8785067698582 397.8122769886111Q1420.2791988177637 397.8122769886111 1414.0615832205958 404.11624835796204Q1407.8439676234275 410.3986307842672 1406.11685217977 423.1576961242891L1406.11685217977 423.1576961242891L1404.2602030778376 420.97721287667116Q1405.9657295784496 407.7647797326891 1413.6729822457723 400.46771698323494Q1421.3586459700496 393.14906529073505 1432.0883506637738 393.14906529073505ZM1494.89058598378 476.46079650417755L1494.89058598378 476.46079650417755Q1488.5002588422462 476.46079650417755 1483.83704714437 474.06442382610237Q1479.1738354464942 471.64646220498145 1476.777462768419 467.3070846527913Q1474.359501147298 462.94611815755536 1474.359501147298 457.20345930739325L1474.359501147298 457.20345930739325Q1474.359501147298 450.35976436189924 1477.554664718065 445.9987978666633Q1480.7282393457863 441.65942031447315 1485.715285189348 439.0039803198493Q1490.6807420898645 436.37012926827117 1496.207511509569 434.5782469954762Q1501.712691986228 432.78636472268124 1506.6997378297901 431.16719399425205Q1511.6651947303062 429.5264343227772 1514.8603583010731 427.34595107515923Q1518.0339329287945 425.16546782754125 1518.0339329287945 421.6032922249971L1518.0339329287945 421.6032922249971L1518.0339329287945 411.9530346835592Q1518.0339329287945 405.43317388375107 1516.0909280546794 402.02212088252696Q1514.1479231805642 398.58947893825706 1510.8879927806602 397.4236760137881Q1507.628062380756 396.25787308931905 1503.5909300312064 396.25787308931905L1503.5909300312064 396.25787308931905Q1499.7049202829762 396.25787308931905 1495.279186958603 397.35890918465094Q1490.8318646911844 398.43835633693703 1488.198013639606 401.84940933816114L1488.198013639606 401.84940933816114Q1491.1556988368702 402.4754886864871 1493.336182084488 404.9582171367452Q1495.4950763890602 407.46253453004897 1495.4950763890602 411.348544278279L1495.4950763890602 411.348544278279Q1495.4950763890602 415.234554026509 1493.0123479388021 417.47980410326414Q1490.529619488544 419.72505418001924 1486.6436097403139 419.72505418001924L1486.6436097403139 419.72505418001924Q1482.131520643758 419.72505418001924 1480.037393168323 416.8537247549382Q1477.943265692888 413.9823953298571 1477.943265692888 410.3986307842672L1477.943265692888 410.3986307842672Q1477.943265692888 406.36149843471713 1479.9510373961402 403.8787699844591Q1481.980398042438 401.396041534201 1485.0892058410222 399.215558286583L1485.0892058410222 399.215558286583Q1488.6729703866122 396.732829836325 1494.329273464591 394.94094756353Q1500.007165485616 393.14906529073505 1507.1531056337503 393.14906529073505L1507.1531056337503 393.14906529073505Q1513.5434327752841 393.14906529073505 1518.0339329287945 394.6387023608899Q1522.5460220253503 396.106750487999 1525.5037072226141 398.9133130839429L1525.5037072226141 398.9133130839429Q1529.5408395721643 402.6266112878072 1530.792998268816 408.002258106192Q1532.0235680224223 413.35631598153117 1532.0235680224223 420.8260902753511L1532.0235680224223 420.8260902753511L1532.0235680224223 464.0255653098415Q1532.0235680224223 467.9115750580715 1533.1893709468914 469.6386905017293Q1534.3551738713604 471.34421700234134 1536.859491264664 471.34421700234134L1536.859491264664 471.34421700234134Q1538.5650177652765 471.34421700234134 1540.119421664568 470.56701505269535Q1541.6738255638602 469.7898131030493 1543.8543088114784 468.0842866024373L1543.8543088114784 468.0842866024373L1545.5598353120904 470.71813765401544Q1542.2999049121863 473.2008661042735 1539.3422197149225 474.84162577574835Q1536.3845345176583 476.46079650417755 1531.4190776171422 476.46079650417755L1531.4190776171422 476.46079650417755Q1526.9069885205863 476.46079650417755 1523.9493033233225 474.9063926048855Q1520.9916181260583 473.35198870559356 1519.5235699989494 470.3295366791924Q1518.0339329287945 467.3070846527913 1518.0339329287945 462.64387295491525L1518.0339329287945 462.64387295491525Q1513.8456779779244 469.6386905017293 1508.016663355579 473.0497435029534Q1502.1876487332343 476.46079650417755 1494.89058598378 476.46079650417755ZM1500.4821222326223 470.2431809070095L1500.4821222326223 470.2431809070095Q1505.5987017344582 470.2431809070095 1510.046024001877 467.3070846527913Q1514.47175732625 464.3493994555273 1518.0339329287945 458.4340290609994L1518.0339329287945 458.4340290609994L1518.0339329287945 427.9720304234852Q1516.177283826862 430.6058814750633 1512.5935192812722 432.3977637478583Q1509.0313436787283 434.18964602065324 1504.8214997848122 435.9815282934482Q1500.6332448339422 437.7734105662431 1496.8335908578952 440.1697832443183Q1493.0123479388021 442.5877448654392 1490.529619488544 446.4737546136692Q1488.046891038286 450.35976436189924 1488.046891038286 456.5773799590673L1488.046891038286 456.5773799590673Q1488.046891038286 462.7949955562353 1491.3931772103729 466.5298827031453Q1494.7178744394141 470.2431809070095 1500.4821222326223 470.2431809070095ZM1578.0511945959024 393.14906529073505L1578.0511945959024 393.14906529073505Q1584.2688101930707 393.14906529073505 1588.6081877452607 395.17842593703296Q1592.9691542404967 397.1861976402851 1594.976925943749 398.9133130839429L1594.976925943749 398.9133130839429Q1600.1150943886305 403.10156803481306 1601.1945415409168 393.30018789205513L1601.1945415409168 393.30018789205513L1604.7783060865067 393.30018789205513Q1604.4760608838665 397.66115438729105 1604.303349339501 403.6412916109561Q1604.1522267381806 409.6214288346212 1604.1522267381806 419.72505418001924L1604.1522267381806 419.72505418001924L1600.5900511356367 419.72505418001924Q1599.6401376416247 413.9823953298571 1597.3948875648698 408.54198168233506Q1595.1496374881144 403.10156803481306 1590.7886709928785 399.60415926140604Q1586.427704497643 396.106750487999 1579.4328869508286 396.106750487999L1579.4328869508286 396.106750487999Q1573.9924733033067 396.106750487999 1570.3439419285796 399.12920251440016Q1566.6954105538525 402.173243483847 1566.6954105538525 408.0670249353292L1566.6954105538525 408.0670249353292Q1566.6954105538525 412.7302366332052 1569.5019731497964 416.0765228052922Q1572.2869468026947 419.42280897737913 1576.7990358992506 422.2941384024602Q1581.3111249958065 425.16546782754125 1586.6004160420084 428.59810977181115L1586.6004160420084 428.59810977181115Q1592.494197493491 432.3329969187211 1597.3085317926866 436.2190066669511Q1602.1444550349283 440.1050164151811 1605.0157844600094 444.76822811305715Q1607.887113885091 449.4314398109332 1607.887113885091 455.80017800942124L1607.887113885091 455.80017800942124Q1607.887113885091 462.94611815755536 1604.1522267381806 467.76045245675147Q1600.4173395912708 472.5747867559475 1594.4372023676056 475.07910414925135Q1588.4570651439408 477.5618325995094 1581.3111249958065 477.5618325995094L1581.3111249958065 477.5618325995094Q1577.8784830515365 477.5618325995094 1574.8560310251355 477.02210902336634Q1571.8335789987345 476.46079650417755 1569.0270164027907 475.3813493518914L1569.0270164027907 475.3813493518914Q1567.4726125034986 474.6041474022454 1565.8318528320237 473.5247002499593Q1564.2126821035945 472.4236641546275 1562.6582782043024 471.1930944010213L1562.6582782043024 471.1930944010213Q1561.1038743050103 469.9409357043694 1559.8517156083585 471.2578612301585Q1558.6211458547523 472.5747867559475 1557.9950665064266 476.46079650417755L1557.9950665064266 476.46079650417755L1554.4113019608367 476.46079650417755Q1554.7351361065225 471.4953396036614 1554.8862587078424 464.3493994555273Q1555.0373813091624 457.20345930739325 1555.0373813091624 445.3727185183374L1555.0373813091624 445.3727185183374L1558.6211458547523 445.3727185183374Q1559.7005930070386 454.0946515088092 1561.7299536533365 460.61451230861735Q1563.7377253565883 467.1343731084255 1568.0986918518247 470.8044934261983Q1572.4380694040146 474.4530248009254 1580.2100889004746 474.4530248009254L1580.2100889004746 474.4530248009254Q1583.3188966990588 474.4530248009254 1586.5140602698257 473.0497435029534Q1589.7092238405926 471.64646220498145 1591.8681181451648 468.38653180507737Q1594.0486013927825 465.12660140517335 1594.0486013927825 459.68618775765134L1594.0486013927825 459.68618775765134Q1594.0486013927825 452.84249281215733 1589.0831444922665 448.4815263169214Q1584.0960986487048 444.1421487647312 1576.4967906966103 439.32781446553514L1576.4967906966103 439.32781446553514Q1570.8836655047226 435.7440499199452 1566.0045643763892 432.16028537435534Q1561.1038743050103 428.59810977181115 1558.0598333355633 424.08602067525516Q1555.0373813091624 419.5739315786992 1555.0373813091624 413.20519338021114L1555.0373813091624 413.20519338021114Q1555.0373813091624 406.21037583339705 1558.2325448799293 401.78464250902397Q1561.4061195076506 397.35890918465094 1566.6954105538525 395.2431927661701Q1571.9847016000544 393.14906529073505 1578.0511945959024 393.14906529073505ZM1647.5244133170368 393.14906529073505L1647.5244133170368 393.14906529073505Q1653.742028914205 393.14906529073505 1658.102995409441 395.17842593703296Q1662.442372961631 397.1861976402851 1664.4717336079289 398.9133130839429L1664.4717336079289 398.9133130839429Q1669.5883131097653 403.10156803481306 1670.6893492050972 393.30018789205513L1670.6893492050972 393.30018789205513L1674.251524807641 393.30018789205513Q1673.9492796050008 397.66115438729105 1673.798157003681 403.6412916109561Q1673.647034402361 409.6214288346212 1673.647034402361 419.72505418001924L1673.647034402361 419.72505418001924L1670.063269856771 419.72505418001924Q1669.134945305805 413.9823953298571 1666.8681062860041 408.54198168233506Q1664.6228562092488 403.10156803481306 1660.2618897140133 399.60415926140604Q1655.9225121618229 396.106750487999 1648.927694615009 396.106750487999L1648.927694615009 396.106750487999Q1643.4872809674866 396.106750487999 1639.8387495927595 399.12920251440016Q1636.1686292749869 402.173243483847 1636.1686292749869 408.0670249353292L1636.1686292749869 408.0670249353292Q1636.1686292749869 412.7302366332052 1638.9751918709308 416.0765228052922Q1641.7817544668746 419.42280897737913 1646.272254620385 422.2941384024602Q1650.7843437169408 425.16546782754125 1656.0736347631432 428.59810977181115L1656.0736347631432 428.59810977181115Q1661.9890051576708 432.3329969187211 1666.803339456867 436.2190066669511Q1671.6176737560631 440.1050164151811 1674.4890031811442 444.76822811305715Q1677.3603326062253 449.4314398109332 1677.3603326062253 455.80017800942124L1677.3603326062253 455.80017800942124Q1677.3603326062253 462.94611815755536 1673.647034402361 467.76045245675147Q1669.9121472554511 472.5747867559475 1663.932010031786 475.07910414925135Q1657.9302838650751 477.5618325995094 1650.7843437169408 477.5618325995094L1650.7843437169408 477.5618325995094Q1647.3732907157168 477.5618325995094 1644.3292497462699 477.02210902336634Q1641.3067977198689 476.46079650417755 1638.500235123925 475.3813493518914L1638.500235123925 475.3813493518914Q1636.945831224633 474.6041474022454 1635.3266604962037 473.5247002499593Q1633.6859008247288 472.4236641546275 1632.1314969254367 471.1930944010213L1632.1314969254367 471.1930944010213Q1630.5770930261451 469.9409357043694 1629.346523272539 471.2578612301585Q1628.0943645758866 472.5747867559475 1627.468285227561 476.46079650417755L1627.468285227561 476.46079650417755L1623.9061096250166 476.46079650417755Q1624.2083548276569 471.4953396036614 1624.3594774289768 464.3493994555273Q1624.5106000302967 457.20345930739325 1624.5106000302967 445.3727185183374L1624.5106000302967 445.3727185183374L1628.0943645758866 445.3727185183374Q1629.173811728173 454.0946515088092 1631.2031723744708 460.61451230861735Q1633.2325330207686 467.1343731084255 1637.571910572959 470.8044934261983Q1641.932877068195 474.4530248009254 1649.704896564655 474.4530248009254L1649.704896564655 474.4530248009254Q1652.8137043632387 474.4530248009254 1655.98727899096 473.0497435029534Q1659.182442561727 471.64646220498145 1661.3629258093451 468.38653180507737Q1663.543409056963 465.12660140517335 1663.543409056963 459.68618775765134L1663.543409056963 459.68618775765134Q1663.543409056963 452.84249281215733 1658.5563632134013 448.4815263169214Q1653.5909063128847 444.1421487647312 1645.9700094177451 439.32781446553514L1645.9700094177451 439.32781446553514Q1640.378473168903 435.7440499199452 1635.477783097524 432.16028537435534Q1630.5770930261451 428.59810977181115 1627.5546409997437 424.08602067525516Q1624.5106000302967 419.5739315786992 1624.5106000302967 413.20519338021114L1624.5106000302967 413.20519338021114Q1624.5106000302967 406.21037583339705 1627.7057636010636 401.78464250902397Q1630.9009271718305 397.35890918465094 1636.1686292749869 395.2431927661701Q1641.4579203211888 393.14906529073505 1647.5244133170368 393.14906529073505Z " fill="#b88746" transform="matrix(0.5216529833220487,0,0,0.5216529833220487,0,76.46555301610545)"/></g></svg>